<?xml version="1.0" standalone="no"?>
<!DOCTYPE svg PUBLIC "-//W3C//DTD SVG 20010904//EN"
 "http://www.w3.org/TR/2001/REC-SVG-20010904/DTD/svg10.dtd">
<svg version="1.0" xmlns="http://www.w3.org/2000/svg"
 width="1897.000000pt" height="1897.000000pt" viewBox="0 0 1897.000000 1897.000000"
 preserveAspectRatio="xMidYMid meet">

<g transform="translate(0.000000,1897.000000) scale(0.100000,-0.100000)"
fill="#000000" stroke="none">
<path d="M3295 14213 c-1003 -16 -1932 -95 -2365 -202 -219 -54 -272 -86 -309
-186 -61 -164 -54 -481 14 -616 26 -50 55 -76 250 -224 416 -314 609 -525 673
-736 11 -37 60 -255 107 -485 101 -488 134 -635 215 -949 235 -921 532 -1507
880 -1742 417 -281 1396 -410 2605 -342 637 35 1273 135 1546 242 47 19 129
59 182 91 506 298 873 814 1131 1591 97 291 165 561 282 1117 123 588 138 631
253 746 238 237 731 322 1136 195 218 -68 369 -182 446 -335 34 -67 53 -145
149 -598 178 -842 291 -1222 483 -1632 251 -533 621 -939 1042 -1143 384 -187
1604 -324 2544 -286 1028 41 1595 200 1876 529 198 231 361 547 516 1002 130
380 233 789 380 1505 89 439 108 514 152 602 88 173 274 357 657 650 169 129
202 158 223 198 64 126 75 439 21 602 -42 126 -124 169 -446 232 -1096 214
-3476 236 -5512 51 -560 -52 -682 -68 -1076 -145 -630 -123 -1025 -157 -1850
-157 -814 0 -1223 34 -1825 152 -384 75 -469 88 -845 124 -1184 117 -2386 167
-3535 149z"/>
<path d="M4662 6567 c-45 -14 -118 -81 -145 -131 -33 -63 -31 -164 6 -236 56
-111 282 -416 477 -645 147 -172 569 -589 745 -736 799 -666 1654 -1084 2610
-1278 345 -70 632 -100 1015 -108 402 -8 694 12 1060 73 560 92 1044 248 1565
504 463 228 827 465 1236 806 180 150 601 566 749 739 195 229 421 534 477
645 36 72 39 173 6 235 -28 52 -88 110 -135 130 -46 19 -148 20 -191 1 -18 -7
-125 -74 -237 -148 -1076 -709 -2382 -1205 -3570 -1357 -314 -40 -427 -46
-850 -46 -451 0 -576 9 -960 65 -963 141 -1978 497 -2930 1028 -199 111 -313
180 -524 320 -104 68 -204 131 -223 138 -37 16 -133 17 -181 1z"/>
</g>
</svg>
